<svg id="vector" xmlns="http://www.w3.org/2000/svg" width="148" height="150" viewBox="0 0 148 150"><path fill="#2D2625" d="M0,0C48.84,0 97.68,0 148,0C148,49.5 148,99 148,150C99.16,150 50.32,150 0,150C0,100.5 0,51 0,0Z" id="path_0"/><path fill="#FDFDFD" d="M0,0C48.84,0 97.68,0 148,0C148,49.5 148,99 148,150C99.16,150 50.32,150 0,150C0,100.5 0,51 0,0ZM21.23,31.06C18.05,36.08 17.7,41.26 17.69,47.05C17.69,47.83 17.68,48.62 17.67,49.43C17.64,52.01 17.64,54.59 17.63,57.17C17.62,58.98 17.61,60.78 17.6,62.59C17.59,66.37 17.58,70.15 17.57,73.94C17.57,78.76 17.53,83.59 17.49,88.42C17.46,92.15 17.45,95.88 17.45,99.61C17.44,101.38 17.43,103.16 17.41,104.94C17.1,118.77 17.1,118.77 23,131C29.52,137.2 35.89,139.3 44.88,139.29C46.03,139.3 46.03,139.3 47.21,139.31C49.73,139.33 52.25,139.33 54.77,139.34C56.53,139.34 58.3,139.35 60.06,139.36C63.75,139.37 67.45,139.37 71.14,139.37C75.85,139.37 80.57,139.4 85.28,139.43C88.92,139.45 92.56,139.46 96.21,139.46C97.94,139.46 99.68,139.47 101.42,139.48C111.5,139.57 119.87,139.46 128.3,133.32C133.67,127.73 136.13,122.94 136.38,115.06C136.22,109.03 135.44,103.44 131,99C130.99,96.13 131.06,93.31 131.19,90.44C131.34,83.17 131.04,77.67 126,72C123.24,69.23 120.51,66.75 117,65C116.35,62.98 115.78,60.93 115.25,58.88C112.97,51.23 110.16,46.53 103.13,42.63C99.11,40.81 95.37,40.31 91,40C90.83,39.32 90.67,38.64 90.5,37.94C87.71,32.48 82.75,28.47 77.13,26.06C71.69,24.31 65.74,24.25 60.25,25.75C56.68,26.15 54.79,24.06 52,22C39.44,17.81 29.48,21.49 21.23,31.06Z" id="path_1"/><path fill="#4D9AD3" d="M49.77,24.88C55.64,27.55 58.8,30.42 62,36C67.8,53.41 63.6,79.28 63,97C42.21,97.5 42.21,97.5 21,98C20.38,82.67 19.77,67.41 20.19,52.06C20.21,50.96 20.22,49.87 20.24,48.73C20.51,41.28 21.78,35.66 26.78,29.98C27.35,29.53 27.92,29.08 28.5,28.63C29.07,28.16 29.63,27.7 30.22,27.23C36.3,23.04 42.72,22.65 49.77,24.88Z" id="path_2"/><path fill="#FCE1B6" d="M21,100C34.86,100 48.72,100 63,100C63,121.22 63,121.22 58.31,128.69C53.34,133.66 48.58,135.27 41.56,135.63C34.94,135.38 30.64,133.76 26,129C18.69,120.39 21,111.44 21,100Z" id="path_3"/><path fill="#EE6523" d="M115,69C119.61,69.73 121.55,72.21 124.45,75.68C127.61,80.4 128.07,84.99 127.88,90.56C125.91,98.29 123.35,102.19 116.61,106.51C112.19,109.03 107.57,110.89 102.84,112.74C101.81,113.16 100.78,113.57 99.72,113.99C96.46,115.3 93.2,116.59 89.94,117.88C87.71,118.76 85.49,119.65 83.27,120.54C77.85,122.7 72.43,124.86 67,127C66.51,125.51 66.51,125.51 66,124C66.54,123.47 67.08,122.93 67.64,122.38C72.77,117.33 77.89,112.27 83,107.2C85.63,104.6 88.26,102 90.9,99.4C93.45,96.9 95.99,94.38 98.52,91.86C99.96,90.43 101.4,89.02 102.84,87.61C108.68,81.78 112.37,76.88 115,69Z" id="path_4"/><path fill="#7EBF43" d="M127,101C131.92,105.76 131.92,105.76 132.2,110.05C132.23,111.88 132.23,111.88 132.25,113.75C132.28,114.96 132.3,116.17 132.33,117.42C131.8,123.14 129.57,126.98 125.31,130.75C124.69,131.32 124.07,131.89 123.43,132.48C116.52,136.8 108.47,136.27 100.63,136.2C99.46,136.19 98.29,136.19 97.09,136.19C93.4,136.18 89.7,136.15 86,136.13C83.48,136.11 80.97,136.11 78.45,136.1C72.3,136.08 66.15,136.04 60,136C60.38,134.07 60.38,134.07 61,132C62.87,130.85 62.87,130.85 65.37,129.91C66.8,129.36 66.8,129.36 68.25,128.8C69.83,128.22 69.83,128.22 71.44,127.63C73.7,126.75 75.97,125.87 78.23,125C79.48,124.52 80.73,124.04 81.97,123.56C88.67,120.98 95.32,118.31 101.97,115.61C104.22,114.7 106.48,113.8 108.74,112.91C110.14,112.34 111.55,111.77 112.95,111.2C113.59,110.95 114.23,110.7 114.89,110.45C119.18,108.67 121.91,106.43 125,103C125.66,102.34 126.32,101.68 127,101Z" id="path_5"/><path fill="#EE5D86" d="M62,29C69.49,28.55 75.84,28.3 82,33C87.18,37.88 90.04,42.36 90.26,49.57C90.22,55.19 88.67,59.5 86.42,64.59C86.05,65.47 85.69,66.34 85.31,67.24C84.14,70 82.94,72.75 81.75,75.5C80.96,77.34 80.18,79.19 79.39,81.04C77.94,84.45 76.48,87.86 75.01,91.26C72.92,96.14 70.95,101.06 69,106C68.34,106 67.68,106 67,106C66.86,98.53 66.71,91.06 66.57,83.59C66.52,81.05 66.48,78.51 66.43,75.98C66.36,72.31 66.29,68.65 66.22,64.98C66.2,63.87 66.18,62.75 66.15,61.59C66.13,60.51 66.11,59.43 66.09,58.32C66.06,56.75 66.06,56.75 66.03,55.15C66.01,53 66.02,50.85 66.06,48.7C66.07,47.65 66.09,46.6 66.11,45.51C66.14,44.57 66.16,43.63 66.19,42.67C65.92,38.92 64.61,36.03 62.88,32.74C62,31 62,31 62,29Z" id="path_6"/><path fill="#F7CD09" d="M93,44C99.44,44.27 103.43,46.46 108,51C111.87,55.97 112.46,60.93 112.53,67.09C110.94,75.79 105.39,81.16 99.3,87.09C98.46,87.93 97.62,88.76 96.76,89.62C94.1,92.25 91.42,94.88 88.75,97.5C86.94,99.29 85.12,101.09 83.31,102.88C78.89,107.27 74.45,111.64 70,116C68.49,111.36 70.27,108.17 72.16,103.89C72.5,103.1 72.84,102.3 73.19,101.48C74.28,98.92 75.39,96.37 76.5,93.81C77.22,92.14 77.93,90.48 78.65,88.81C79.18,87.57 79.18,87.57 79.72,86.32C80.07,85.5 80.42,84.68 80.78,83.83C81.49,82.18 82.2,80.52 82.91,78.87C83.43,77.66 83.43,77.66 83.96,76.42C84.65,74.81 85.34,73.2 86.04,71.59C87.03,69.31 88,67.02 88.97,64.73C89.27,64.06 89.56,63.39 89.86,62.7C92.47,56.49 93.08,50.71 93,44Z" id="path_7"/><path fill="#58AF44" d="M125,128C125.99,128.49 125.99,128.49 127,129C119.19,136.42 110.99,136.29 100.63,136.2C99.46,136.19 98.29,136.19 97.09,136.19C93.4,136.18 89.7,136.15 86,136.13C83.48,136.11 80.97,136.11 78.45,136.1C72.3,136.08 66.15,136.04 60,136C60.26,134.11 60.26,134.11 61,132C67.24,128.03 75.32,128.62 82.4,128.74C84.14,128.75 84.14,128.75 85.91,128.76C89.59,128.79 93.26,128.83 96.94,128.88C100.64,128.91 104.34,128.94 108.04,128.97C110.33,128.98 112.63,129.01 114.92,129.04C116.47,129.05 116.47,129.05 118.05,129.07C119.42,129.08 119.42,129.08 120.81,129.1C123.05,129.15 123.05,129.15 125,128Z" id="path_8"/><path fill="#3667A2" d="M56,29C60.46,33 63,37.12 63.55,43.13C63.63,44.8 63.7,46.46 63.75,48.13C63.79,49.04 63.82,49.95 63.86,50.89C64.32,66.25 63.56,81.65 63,97C61.35,97 59.7,97 58,97C57.98,95.83 57.98,95.83 57.97,94.64C57.87,87.3 57.77,79.96 57.66,72.62C57.61,68.84 57.55,65.07 57.5,61.29C57.45,57.65 57.4,54.01 57.35,50.36C57.33,48.97 57.31,47.58 57.29,46.2C57.27,44.25 57.24,42.3 57.21,40.35C57.19,39.24 57.17,38.13 57.16,36.99C57.01,34.23 56.62,31.7 56,29Z" id="path_9"/><path fill="#E73B77" d="M87,40C89.94,42.94 90.18,45.6 90.29,49.59C90.22,55.2 88.67,59.51 86.42,64.59C86.05,65.47 85.69,66.34 85.31,67.24C84.14,70 82.94,72.75 81.75,75.5C80.96,77.34 80.18,79.19 79.39,81.04C77.94,84.45 76.48,87.86 75.01,91.26C72.92,96.14 70.95,101.06 69,106C68.34,106 67.68,106 67,106C65.15,94.03 70.61,84.17 75.38,73.56C76.18,71.73 76.98,69.9 77.78,68.07C79.25,64.73 80.72,61.38 82.21,58.05C85.22,51.35 85.22,51.35 86.63,44.19C86.7,43.4 86.77,42.61 86.85,41.79C86.9,41.2 86.95,40.61 87,40Z" id="path_10"/><path fill="#E95023" d="M124,96C124.66,96.33 125.32,96.66 126,97C118.89,109.7 100.08,113.75 87.25,118.88C85.28,119.67 83.31,120.46 81.34,121.25C76.56,123.17 71.78,125.09 67,127C66.67,126.01 66.34,125.02 66,124C68.64,121.36 71.28,118.72 74,116C74.66,116.33 75.32,116.66 76,117C78.77,116.11 78.77,116.11 81.94,114.72C83.16,114.21 84.37,113.7 85.63,113.18C86.94,112.62 88.25,112.06 89.56,111.5C90.89,110.94 92.21,110.39 93.53,109.83C95.51,109 97.49,108.17 99.46,107.33C103.17,105.76 106.9,104.22 110.63,102.71C111.42,102.39 112.21,102.08 113.02,101.75C114.43,101.18 115.84,100.62 117.25,100.06C119.99,98.95 121.89,98.11 124,96Z" id="path_11"/><path fill="#F3AB18" d="M111,59C111.33,59 111.66,59 112,59C112.11,60.67 112.19,62.33 112.25,64C112.3,64.93 112.34,65.86 112.39,66.81C111.31,75.66 105.39,81.16 99.3,87.09C98.46,87.93 97.62,88.76 96.76,89.62C94.1,92.25 91.42,94.88 88.75,97.5C86.94,99.29 85.12,101.09 83.31,102.88C78.89,107.27 74.45,111.64 70,116C68.7,111.81 69.65,109.75 71.44,105.75C71.91,104.67 72.38,103.59 72.87,102.48C73.24,101.66 73.62,100.84 74,100C74.33,100.66 74.66,101.32 75,102C81.56,96.5 87.64,90.54 93.69,84.49C95.32,82.87 96.96,81.25 98.6,79.63C99.64,78.58 100.69,77.54 101.74,76.49C102.22,76.01 102.71,75.54 103.21,75.05C108.23,69.98 110.3,66.12 111,59Z" id="path_12"/><path fill="#E5EDF4" d="M24,34C24.33,34 24.66,34 25,34C25,54.79 25,75.58 25,97C23.02,97.49 23.02,97.49 21,98C20.32,82.64 19.77,67.31 20.25,51.94C20.28,50.82 20.3,49.71 20.33,48.56C20.55,42.93 20.92,38.77 24,34Z" id="path_13"/><path fill="#D0BB98" d="M22,100C35.53,100 49.06,100 63,100C63,122.72 63,122.72 57.31,128.94C56.55,129.62 55.79,130.3 55,131C55.88,126.25 55.88,126.25 57,124C57.15,122.26 57.25,120.52 57.32,118.77C57.35,117.84 57.39,116.92 57.43,115.96C57.47,114.78 57.52,113.59 57.56,112.38C57.71,108.62 57.85,104.87 58,101C46.12,101 34.24,101 22,101C22,100.67 22,100.34 22,100Z" id="path_14"/><path fill="#2F2B2A" d="M46,109C47.94,110.06 47.94,110.06 49,112C49.5,115.93 49.6,118.1 47.38,121.44C44.28,123.47 42.64,123.61 39,123C36.63,121.38 36.63,121.38 35,119C34.39,115.36 34.53,113.72 36.56,110.63C39.9,108.4 42.07,108.5 46,109Z" id="path_15"/><path fill="#F9F5F1" d="M21,100C22.32,100.33 23.64,100.66 25,101C25.33,109.58 25.66,118.16 26,127C21.91,122.91 20.9,120.04 20.8,114.36C20.82,112.63 20.84,110.91 20.88,109.19C20.88,108.3 20.89,107.42 20.9,106.51C20.93,104.34 20.96,102.17 21,100Z" id="path_16"/><path fill="#F7FAFD" d="M38,28C38,28.99 38,29.98 38,31C37.22,31.21 36.43,31.41 35.63,31.63C32.74,32.8 32.74,32.8 31.69,35.88C30.86,39.12 30.86,39.12 31,43C30.01,43 29.02,43 28,43C27.22,34.11 27.22,34.11 30.19,29.88C33.18,27.88 34.49,27.5 38,28Z" id="path_17"/><path fill="#E9E9E9" d="M40,112C41.68,112.29 43.34,112.62 45,113C45.38,114.66 45.71,116.32 46,118C45.67,118.33 45.34,118.66 45,119C42.66,118.71 40.33,118.38 38,118C38.88,113.13 38.88,113.13 40,112Z" id="path_18"/><path fill="#F6FAFC" d="M28,80C28.99,80 29.98,80 31,80C31,84.29 31,88.58 31,93C30.01,93 29.02,93 28,93C28,88.71 28,84.42 28,80Z" id="path_19"/><path fill="#FBD936" d="M99,28C100.68,28.29 102.34,28.62 104,29C103.67,30.65 103.34,32.3 103,34C101.13,34.63 101.13,34.63 99,35C98.34,34.34 97.68,33.68 97,33C97.54,29.46 97.54,29.46 99,28Z" id="path_20"/><path fill="#F8E8E0" d="M115,71C119.8,73.46 119.8,73.46 120.81,76.19C120.87,76.79 120.94,77.38 121,78C117,78 117,78 115.19,76.75C114,75 114,75 114.31,72.81C114.54,72.21 114.77,71.62 115,71Z" id="path_21"/><path fill="#F2763A" d="M8,99C9.65,99.33 11.3,99.66 13,100C12.67,101.32 12.34,102.64 12,104C10.35,103.67 8.7,103.34 7,103C7.33,101.68 7.66,100.36 8,99Z" id="path_22"/><path fill="#352A33" d="M63,54C64.32,54 65.64,54 67,54C67,55.98 67,57.96 67,60C65.68,60 64.36,60 63,60C63,58.02 63,56.04 63,54Z" id="path_23"/><path fill="#F8F5E6" d="M93,46C95.97,46.49 95.97,46.49 99,47C99.33,48.32 99.66,49.64 100,51C97.03,50.51 97.03,50.51 94,50C93.67,48.68 93.34,47.36 93,46Z" id="path_24"/><path fill="#F9EBEF" d="M64,31C66.31,31.33 68.62,31.66 71,32C71,32.99 71,33.98 71,35C68.69,35 66.38,35 64,35C64,33.68 64,32.36 64,31Z" id="path_25"/><path fill="#EBF5E2" d="M125,104C125.99,104 126.98,104 128,104C128.33,105.98 128.66,107.96 129,110C127.68,110 126.36,110 125,110C124.62,108.34 124.29,106.68 124,105C124.33,104.67 124.66,104.34 125,104Z" id="path_26"/><path fill="#6BAADB" d="M59,11C60.32,11.66 61.64,12.32 63,13C62.34,14.32 61.68,15.64 61,17C59.68,16.34 58.36,15.68 57,15C57,14.34 57,13.68 57,13C57.66,13 58.32,13 59,13C59,12.34 59,11.68 59,11Z" id="path_27"/><path fill="#F27B40" d="M137,89C137.99,89 138.98,89 140,89C140,89.66 140,90.32 140,91C140.66,91 141.32,91 142,91C142,91.66 142,92.32 142,93C141.34,93 140.68,93 140,93C140,93.66 140,94.32 140,95C139.34,95 138.68,95 138,95C138,94.34 138,93.68 138,93C137.34,93 136.68,93 136,93C136.33,91.68 136.66,90.36 137,89Z" id="path_28"/></svg>